<?xml version="1.0" encoding="UTF-8"?>
<svg id="Logo_Solo" data-name="Logo Solo" xmlns="http://www.w3.org/2000/svg" viewBox="0 0 360 360">
  <defs>
    <style>
      .cls-1 {
        fill: #fff;
      }
    </style>
  </defs>
  <g id="Dog_Logo" data-name="Dog Logo">
    <g id="Dog_Vector" data-name="Dog Vector">
      <g>
        <path class="cls-1" d="M290.35,239.43c3.58,7,6.76,14.05,12.91,19.01,4.29,3.45,8.41,5.74,12.07,10.18,4.22,5.11,3.94,9.69,5.58,15.7,2.76,10.07,8.07,21.13,7,31.69-.17,1.71-2.2,4.6-3.38,5.97-.75.88-1.69,1.53-2.58,2.25l-1.93-5.79c-2.6,1.31-.82,3.8-.16,5.79l-7.05-.37c-1.07-1.04.57-5.52-.53-5.76-1.56-.33-2.29,4.71-1.45,5.8-2.48.01-4.15-1.12-5.04-3.39.52-1.4,1.42-2.65,1.97-4.04,5.89-14.96-2.28-28.12-9.45-40.84-4.67-8.29-7.16-9.08-14.22-14.48"/>
        <path class="cls-1" d="M288.45,264.65c-11.08-8.48-22.85-16.41-33.25-25.77-7.89-7.1-22.08-24.26-32.49-25.56-5.44-.68-13.35,2.45-17.79,5.59-2.87,2.03-4.94,3.95-8.2,5.67-4.33,2.28-8.72,3.47-13.31,5.1-1.61.29-2.12-1.61-3.68-1.29-.24,1.9.05,3.3-2.34,2.83-2.34-.46-3.86-2.33-5.24-4.11-1.16,1.47-1.83,4.04-4.15,3.84-1.1-.35.29-4.73-2.31-5.06-1.71,1-.02,3.48-1.29,4.76-.87-.99-2.09-1.87-2.87-2.92-.53-.71-1.51-3.17-1.69-3.21-2.13-.52-5.2,3.51-7.85,2.59-.91-.88,3.17-2.69,2.9-3.87-1.22-.18-2.58-.49-3.72-.96-2.37-.99-2.64-2.27-5.47-2.27h-6.29c.19,2.53.71,5.06.96,7.58.54,5.39.6,10.73.96,16.13.21,3.22.18,4.06,3.23,5.47l-2.57,1.46c-.16.22,2.09,3.67,1.14,5.17-.62.98-1.75-1.09-2.42-1.16-.82-.2-.81,1.35-.51,1.81.45.68,2.12-.73,1.79,1.42-.19,1.26-1.79,1.23-2.11,1.77-.22.37.91,4.41-.63,5.17l-.8-.96c.05,3.03-1.56,5.64-2.35,8.46-2.19,7.9-3.93,17.21-5.31,25.33-.92,5.41-1.35,18.36-4.75,22.34-.4.47-3.16,2.57-3.56,2.57h-15.64c-.44-.44.7-6.13,1.21-7.02.44-.76,1.2-.48,1.04-1.37-3.61-.25-4.33,5.66-4.19,8.38l-7.74.32c-.86-3.53,2.54-10.56,5.32-12.58,2.5-1.82,7.22-.48,9.17-2.12,2.11-1.77,2.46-4.82,2.29-7.4-.56-8.78.53-17.83,1.29-26.74.63-7.32-1.72-14.08-2.82-21.07-1.63-10.39-1.28-17.3-7.37-26.49-6.61-9.98-15.61-19.92-19.58-31.37-2.09-6.03-3.4-12.24-5.7-18.16-.71-1.83-.69-4.02-.65-5.96l-2.1,1.28c-.87.2-1.11-3.23-1.09-3.99.07-2.88,1.81-5.67,3.19-8.09-1.24-.61-5.18-2.44-4.84-4.19.14-.73,2.83-.33,3.85-.99,1.1-.72,2.06-3.52,1.14-4.66-1.37-.03-2.23,2.5-3.7,2.26-.97-2.18,3.44-8.14,3.38-9.03-.01-.17-.14-.69-.31-.64-1.69.86-4.26,1.77-6.13,1.93-6,.49-.79-2.29.64-3.55,1.54-1.36,4.03-4.65,4.3-6.69.34-2.58-1.19-9.31-2.11-11.93-.74-2.12-2.83-4.79-3.17-5.86-.48-1.53-.33-2.5-1.2-4.28-.55-1.12-1.72-2.27-2.08-3.08-.81-1.83-1.77-10.68-2.49-11.37-3.53-1.36-7.39-.94-10.97-1.28-7.89-.75-13.91-2.72-20.45-7.29-5.76-4.03-11.88-9.56-11.32-17.12,4.02.27,7.77-1.96,9.45-5.39.35-.72-.07-1.59-.84-1.8h0c-.61-.16-1.27.13-1.52.72-1.17,2.8-3.97,4.59-7.09,4.44.02-1.46.62-6.3,1.93-6.94.29-.14,4.22-.46,4.99-.5,3.31-.17,7-.04,10.35,0,2.94.03,6.6.98,9.51-.14,2.1-.81,1.2-2.17,1.92-3.88,2.75-6.54,17.14-10.99,23.71-11.47,14.12-1.03,30.01,5.82,39.35,16.47.45.52,3.25,3.85,3.32,4.1.38,1.28-1.93,6.45-2.61,7.9-1.77,3.75-4.25,7.18-6.41,10.68-1.78,2.87-3.75,6.54-5.68,9.16-.82,1.11-1.26,2.15-2.85,2.24-4.45.25-10.31-5.77-12.3-9.48-1.09-6.29-.49-12.62-.71-18.96-.08-2.24-.13-6.45-.61-8.42-.65-2.71-4.2-7.45-7.46-6.56l2.99,7.48c4.11,11.39-1.14,24.12,7.96,33.64,6.71,7.03,16.21,5.04,19.52-4.05.88-2.43.66-6.95,4.13-6.72,1.27.34,6.71,11.72,7.92,13.71,2.75,4.54,10.12,12.86,14.4,15.91,1.41,1,3.85,1.96,5.43,2.95,8.53,5.39,16.82,11.68,25.4,16.85,19.04,11.47,43.59,14.37,65.23,17.64,8.02,1.21,17.72,2.16,25.44,3.9,1.09.25,2.05,1.04,3,1.19,5.2.84,12.47-6.5,17.81-7.01,1.04-.1,1.8.27,2.81.29.84.01,1.87-.47,2.5-.31.16.04,2.47,1.72,2.63,1.91,1.5,1.74,2.32,5.87,1.48,8.04l2.9-.32c.1,1.8-1.95,3.06-3.55,3.23.66,1.93,1.53,3.79.49,5.8-.41.57-.46.11-.81-.16-.86-.67-1.43-1.76-2.58-2.1.21.97-2.55,4.72-3.07,4.83-.73.16-1.15-1.76-1.49-2.21-.66-.38-4.34,2.5-5.43,3.03-1.27.61-2.82,1.14-4.2,1.45,2.22,6.72,3.44,13.8,5.32,20.64,4.62,16.79,7.9,33.66,15.83,49.16"/>
        <path class="cls-1" d="M237.05,321.89l-13.45.04c-.16-2.69.08-5.73,2.58-7.26l-.53-.77c-3.73-.01-4.68,5.01-4.3,8.03-2.49.05-4.93.74-7.41-.01.39-4.82,1.61-9.27,5.82-12.06,1.52-1.01,5.17-2.34,6.96-2.42,1.05-.05,2.37.47,3.11-.43.25-.3,1.69-.73,1.99-1.21,1.89-3.1,4.47-6.81,5.57-10.23,2.16-6.72,3.92-17.29,1.22-23.93-2.49-6.1-8.28-7.41-12.74-11.45-1.3-1.18-1.96-2.57-3.06-3.72-6.89-7.2-16.06-13.5-19.96-22.93-.56-1.36-2.41-6.98-2.07-8.12.09-.3,4.03-3.66,4.62-4.1.7-.52,3.72-2.69,4.26-2.83,3.43-.88,10.08.51,13.63,1.37,7.5,1.83,14.95,6.22,19.66,12.27-.28,2.27.33,4.59.35,6.77.02,2.09-.94,6.28.14,8.21.66,1.18,7.5,4.71,9.04,6.44,10.73,12.12,9.08,20.48,3.53,34.51-2.92,7.39-6,14.92-9.03,22.25-1.57,3.8-5.11,8.98-9.92,11.58Z"/>
      </g>
      <path class="cls-1" d="M91.71,216.48c-.61-.02-1.09.17-1.6.5-.53.34-4.54,3.45-4.7,3.7-.42.66.41,1.84.82,2.41,4.43,6.14,11.86,12.23,16.76,18.39,1.92,2.41,5.18,7.1,6.21,9.91.95,2.58,1.25,12.43,1.24,15.55,0,1.96-.49,4.31-.67,6.29-.75.21-.54-.2-.73-.41-6.32-7.03-13.35-13.58-20.22-20.07-8.39-7.92-17.83-14.97-24.13-24.89-1.39-2.19-3.78-7.41-3.61-9.93.72-10.53,14.94-16.93,22.14-22.71l.69.51,7.8,20.74Z"/>
    </g>
  </g>
</svg>