<?xml version="1.0" encoding="UTF-8"?>
<svg id="Logo_W_Typography" data-name="Logo W/ Typography" xmlns="http://www.w3.org/2000/svg" viewBox="0 0 360 360">
  <defs>
    <style>
      .cls-1 {
        fill: #fff;
      }
    </style>
  </defs>
  <g id="Dog_Logo" data-name="Dog Logo">
    <g id="Dog_Vector" data-name="Dog Vector">
      <g>
        <path class="cls-1" d="M342.51,192.83c1.19,2.32,2.24,4.66,4.28,6.31,1.42,1.15,2.79,1.9,4.01,3.38,1.4,1.69,1.31,3.21,1.85,5.21.92,3.34,2.68,7.01,2.32,10.51-.06.57-.73,1.52-1.12,1.98-.25.29-.56.51-.86.75l-.64-1.92c-.86.43-.27,1.26-.05,1.92l-2.34-.12c-.35-.34.19-1.83-.18-1.91-.52-.11-.76,1.56-.48,1.92-.82,0-1.38-.37-1.67-1.12.17-.46.47-.88.65-1.34,1.95-4.96-.76-9.33-3.14-13.55-1.55-2.75-2.37-3.01-4.72-4.8"/>
        <path class="cls-1" d="M341.88,201.2c-3.68-2.81-7.58-5.44-11.03-8.55-2.62-2.35-7.32-8.05-10.78-8.48-1.8-.22-4.43.81-5.9,1.85-.95.67-1.64,1.31-2.72,1.88-1.44.76-2.89,1.15-4.41,1.69-.53.1-.7-.53-1.22-.43-.08.63.02,1.1-.78.94s-1.28-.77-1.74-1.36c-.39.49-.61,1.34-1.38,1.27-.36-.12.1-1.57-.76-1.68-.57.33,0,1.15-.43,1.58-.29-.33-.69-.62-.95-.97-.18-.24-.5-1.05-.56-1.07-.71-.17-1.72,1.16-2.6.86-.3-.29,1.05-.89.96-1.28-.4-.06-.86-.16-1.23-.32-.78-.33-.87-.75-1.82-.75h-2.09c.06.84.24,1.68.32,2.51.18,1.79.2,3.56.32,5.35.07,1.07.06,1.35,1.07,1.81l-.85.48c-.05.07.69,1.22.38,1.71-.21.32-.58-.36-.8-.39-.27-.07-.27.45-.17.6.15.22.7-.24.6.47-.06.42-.59.41-.7.59-.07.12.3,1.46-.21,1.72l-.27-.32c.02,1-.52,1.87-.78,2.81-.73,2.62-1.3,5.71-1.76,8.4-.3,1.79-.45,6.09-1.58,7.41-.13.16-1.05.85-1.18.85h-5.19c-.15-.15.23-2.03.4-2.33.15-.25.4-.16.35-.45-1.2-.08-1.44,1.88-1.39,2.78l-2.57.11c-.29-1.17.84-3.5,1.76-4.17.83-.6,2.4-.16,3.04-.7.7-.59.82-1.6.76-2.45-.19-2.91.17-5.91.43-8.87.21-2.43-.57-4.67-.94-6.99-.54-3.45-.43-5.74-2.44-8.79-2.19-3.31-5.18-6.61-6.5-10.41-.69-2-1.13-4.06-1.89-6.02-.24-.61-.23-1.33-.22-1.98l-.7.43c-.29.07-.37-1.07-.36-1.32.02-.95.6-1.88,1.06-2.68-.41-.2-1.72-.81-1.61-1.39.05-.24.94-.11,1.28-.33.36-.24.68-1.17.38-1.55-.46-.01-.74.83-1.23.75-.32-.72,1.14-2.7,1.12-3,0-.06-.05-.23-.1-.21-.56.29-1.41.59-2.03.64-1.99.16-.26-.76.21-1.18.51-.45,1.34-1.54,1.43-2.22.11-.85-.4-3.09-.7-3.96-.25-.7-.94-1.59-1.05-1.94-.16-.51-.11-.83-.4-1.42-.18-.37-.57-.75-.69-1.02-.27-.61-.59-3.54-.83-3.77-1.17-.45-2.45-.31-3.64-.43-2.62-.25-4.61-.9-6.78-2.42-1.91-1.34-3.94-3.17-3.76-5.68,1.33.09,2.58-.65,3.13-1.79.12-.24-.02-.53-.28-.6h0c-.2-.05-.42.04-.5.24-.39.93-1.32,1.52-2.35,1.47,0-.48.2-2.09.64-2.3.1-.05,1.4-.15,1.65-.16,1.1-.05,2.32-.01,3.43,0,.97.01,2.19.33,3.15-.05.7-.27.4-.72.64-1.29.91-2.17,5.68-3.64,7.86-3.8,4.68-.34,9.95,1.93,13.05,5.46.15.17,1.08,1.28,1.1,1.36.13.42-.64,2.14-.87,2.62-.59,1.24-1.41,2.38-2.13,3.54-.59.95-1.24,2.17-1.88,3.04-.27.37-.42.71-.95.74-1.48.08-3.42-1.91-4.08-3.15-.36-2.09-.16-4.19-.23-6.29-.03-.74-.04-2.14-.2-2.79-.22-.9-1.39-2.47-2.48-2.18l.99,2.48c1.36,3.78-.38,8,2.64,11.16,2.23,2.33,5.38,1.67,6.47-1.34.29-.81.22-2.3,1.37-2.23.42.11,2.23,3.89,2.63,4.55.91,1.51,3.36,4.27,4.78,5.28.47.33,1.28.65,1.8.98,2.83,1.79,5.58,3.87,8.42,5.59,6.32,3.8,14.46,4.77,21.64,5.85,2.66.4,5.88.71,8.44,1.3.36.08.68.35.99.4,1.72.28,4.14-2.15,5.91-2.32.35-.03.6.09.93.1.28,0,.62-.16.83-.1.05.01.82.57.87.63.5.58.77,1.95.49,2.67l.96-.11c.03.6-.65,1.01-1.18,1.07.22.64.51,1.26.16,1.92-.13.19-.15.04-.27-.05-.28-.22-.47-.58-.85-.7.07.32-.85,1.57-1.02,1.6-.24.05-.38-.59-.5-.73-.22-.13-1.44.83-1.8,1-.42.2-.94.38-1.39.48.74,2.23,1.14,4.58,1.77,6.84,1.53,5.57,2.62,11.17,5.25,16.31"/>
        <path class="cls-1" d="M324.83,220.18h-4.46c-.05-.88.03-1.89.86-2.39l-.18-.25c-1.24,0-1.55,1.66-1.43,2.66-.83.02-1.64.25-2.46,0,.13-1.6.54-3.08,1.93-4,.51-.34,1.71-.78,2.31-.8.35-.02.79.16,1.03-.14.08-.1.56-.24.66-.4.63-1.03,1.48-2.26,1.85-3.39.72-2.23,1.3-5.74.4-7.94-.83-2.02-2.75-2.46-4.23-3.8-.43-.39-.65-.85-1.01-1.23-2.29-2.39-5.33-4.48-6.62-7.6-.19-.45-.8-2.31-.69-2.69.03-.1,1.34-1.21,1.53-1.36.23-.17,1.23-.89,1.41-.94,1.14-.29,3.34.17,4.52.45,2.49.61,4.96,2.06,6.52,4.07-.09.75.11,1.52.12,2.25s-.31,2.08.05,2.72c.22.39,2.49,1.56,3,2.14,3.56,4.02,3.01,6.79,1.17,11.45-.97,2.45-1.99,4.95-3,7.38-.52,1.26-1.69,2.98-3.29,3.84Z"/>
      </g>
      <path class="cls-1" d="M276.62,185.22c-.2,0-.36.06-.53.17-.18.11-1.51,1.14-1.56,1.23-.14.22.13.61.27.8,1.47,2.04,3.93,4.06,5.56,6.1.64.8,1.72,2.36,2.06,3.29.31.86.41,4.12.41,5.16,0,.65-.16,1.43-.22,2.09-.25.07-.18-.07-.24-.14-2.1-2.33-4.43-4.5-6.71-6.66-2.78-2.63-5.91-4.97-8-8.26-.46-.73-1.25-2.46-1.2-3.29.24-3.49,4.95-5.62,7.34-7.53l.23.17,2.59,6.88Z"/>
    </g>
  </g>
  <g>
    <g>
      <path class="cls-1" d="M4.98,132.66h9.04l4.18,45.89h.17l4.44-45.89h10.24l4.44,45.89h.17l4.18-45.89h8.1l-6.06,59.71h-11.69l-4.27-40.26h-.17l-4.27,40.26h-12.45l-6.06-59.71Z"/>
      <path class="cls-1" d="M53.43,132.66h9.38v59.71h-9.38v-59.71Z"/>
      <path class="cls-1" d="M68.53,132.66h11.77l9.13,35.74h.17v-35.74h8.36v59.71h-9.64l-11.26-43.59h-.17v43.59h-8.36v-59.71Z"/>
      <path class="cls-1" d="M102.98,178.21v-31.39c0-9.55,4.78-15.01,13.99-15.01s13.99,5.46,13.99,15.01v5.12h-8.87v-5.72c0-4.27-1.88-5.89-4.86-5.89s-4.86,1.62-4.86,5.89v32.67c0,4.27,1.88,5.8,4.86,5.8s4.86-1.54,4.86-5.8v-11.69h-4.69v-8.53h13.56v19.53c0,9.55-4.78,15.01-13.99,15.01s-13.99-5.46-13.99-15.01Z"/>
      <path class="cls-1" d="M161.24,132.66l-5.97,42.74h-.17l-5.97-42.74h-13.39v57.07c.5-.02,1,.04,1.48.15.21-.1.43-.2.65-.27,1.83-.63,4.04-.09,5.43,1.23.23.22.44.47.63.74v-44.4h.17l6.82,45.21h7.85l6.82-45.21h.17v45.21h8.87v-59.71h-13.39Z"/>
      <path class="cls-1" d="M187.6,132.66h12.71l9.72,59.71h-9.38l-1.71-11.86v.17h-10.66l-1.71,11.69h-8.7l9.72-59.71ZM197.84,172.58l-4.18-29.52h-.17l-4.09,29.52h8.44Z"/>
      <path class="cls-1" d="M213.27,132.66h11.77l9.13,35.74h.17v-35.74h8.36v59.71h-9.64l-11.26-43.59h-.17v43.59h-8.36v-59.71Z"/>
    </g>
    <g>
      <path class="cls-1" d="M152.4,208.37l-2.07,5.94h-2.6c-2.87,9.45-9.24,16.56-16.57,16.56s-11.41-4.09-11.41-13.91c0-11.78,8.28-28.56,21.08-28.56,7.54,0,11.73,5.74,9.45,14.12h-7.01c1.43-4.89-1.01-7.33-3.56-7.33-7.38,0-12.9,12.27-12.9,21.45,0,5.04,1.75,7.86,4.99,7.86,3.98,0,7.22-5.15,9.08-10.19h-6.11l2.02-5.94h15.61Z"/>
      <path class="cls-1" d="M179.15,212.94c-1.96,4.51-7.27,13.17-12.85,13.17-2.07,0-3.88-1.33-4.3-3.77-1.54,2.02-3.72,3.77-6.8,3.77-5.36,0-7.01-5.79-.21-21.76h6.37c-4.94,11.63-5.84,16.03-3.5,16.03,2.71,0,4.41-4.25,8.49-16.03h6.37c-4.19,12.1-6.05,15.87-4.25,15.87,1.91,0,5.04-3.98,7.59-9.61l3.08,2.34Z"/>
      <path class="cls-1" d="M191.24,212.94c-1.96,4.51-7.27,13.17-12.85,13.17-8.39,0-4.62-10.14-.32-21.76h6.37c-3.34,9.08-6.42,15.87-3.88,15.87,1.91,0,5.04-3.98,7.59-9.61l3.08,2.34ZM179.35,200.23c0-2.76,2.34-5.41,4.94-5.41,1.81,0,3.13,1.33,3.13,3.13,0,2.65-2.39,5.47-4.94,5.47-1.96,0-3.13-1.33-3.13-3.18Z"/>
      <path class="cls-1" d="M214.54,212.94c-1.96,4.51-7.22,13.11-12.79,13.17h-.05c-2.34,0-4.03-1.59-4.41-3.56-1.33,2.07-3.29,3.56-6,3.56-3.66,0-5.95-2.86-5.95-7.75,0-7.06,5.1-14.55,10.94-14.55,2.07,0,4.09,1.22,4.88,2.65,1.65-4.78,3.24-9.56,4.78-14.34h6.37c-8.28,22.46-10.46,28.09-8.44,28.09,1.91,0,5.04-3.98,7.59-9.61l3.08,2.34ZM199.73,210.65c-.8-.8-1.7-1.33-2.81-1.33-3.08,0-5.2,4.78-5.2,8.34,0,1.48.58,2.6,1.96,2.6,1.91,0,3.98-2.98,6.05-9.61Z"/>
      <path class="cls-1" d="M234.81,212.94c-3.45,6.53-6.32,13.17-16.46,13.17-5.15,0-9.61-2.76-9.61-8.65,0-6.9,4.72-13.64,12-13.64,4.25,0,6.69,3.13,6.69,6.53,0,6.43-7.38,9.03-12.32,7.91.43,1.75,1.86,2.76,4.57,2.76,5.04,0,7.86-2.18,11.89-10.4l3.24,2.34ZM215.22,214.48c2.92.11,6.42-1.48,6.53-3.93.05-1.17-.53-1.75-1.49-1.75-2.34,0-4.35,2.5-5.04,5.68Z"/>
      <path class="cls-1" d="M241.33,203.49c1.65,3.51,4.51,8.39,4.51,13.59,0,4.35-3.29,9.08-8.92,9.08-3.61,0-7.91-1.65-9.61-5.1-.8-1.38-.37-2.55.9-4.35,2.66-4.09,4.35-7.65,5.89-13.22h7.22ZM239.21,216.5c0-2.55-.85-4.88-1.91-6.95-1.22,4.09-3.08,7.22-4.94,9.61.64.96,1.75,1.91,3.5,1.91,2.18,0,3.35-2.34,3.35-4.57Z"/>
    </g>
  </g>
</svg>