<?xml version="1.0" encoding="UTF-8"?>
<svg id="Dog_Head_Icon" data-name="Dog Head Icon" xmlns="http://www.w3.org/2000/svg" xmlns:xlink="http://www.w3.org/1999/xlink" viewBox="0 0 360 360">
  <defs>
    <style>
      .cls-1 {
        fill: #ac8b2f;
      }

      .cls-2 {
        fill: none;
      }

      .cls-3 {
        clip-path: url(#clippath);
      }
    </style>
    <clipPath id="clippath">
      <rect class="cls-2" x="33.88" y="38.41" width="283.17" height="283.17" rx="18.12" ry="18.12"/>
    </clipPath>
  </defs>
  <g class="cls-3">
    <g id="Dog_Logo" data-name="Dog Logo">
      <g id="Dog_Vector" data-name="Dog Vector">
        <path class="cls-1" d="M656.37,533.21c-25.23-19.31-52.02-37.38-75.71-58.67-17.97-16.16-50.28-55.25-73.98-58.2-12.39-1.54-30.41,5.59-40.5,12.73-6.53,4.62-11.24,9-18.67,12.91-9.85,5.19-19.86,7.9-30.3,11.62-3.66.65-4.83-3.66-8.37-2.94-.54,4.34.12,7.52-5.34,6.44-5.34-1.06-8.79-5.3-11.92-9.36-2.64,3.34-4.16,9.2-9.45,8.74-2.5-.8.67-10.77-5.25-11.53-3.91,2.28-.06,7.92-2.93,10.84-1.99-2.26-4.77-4.27-6.54-6.66-1.2-1.62-3.45-7.22-3.85-7.32-4.84-1.19-11.83,7.98-17.87,5.91-2.06-2,7.22-6.13,6.6-8.8-2.78-.42-5.87-1.11-8.46-2.19-5.39-2.25-6-5.16-12.46-5.16h-14.32c.42,5.77,1.62,11.52,2.2,17.26,1.22,12.27,1.37,24.43,2.18,36.74.48,7.33.42,9.25,7.36,12.45l-5.86,3.32c-.36.49,4.77,8.35,2.59,11.76-1.42,2.22-3.98-2.49-5.5-2.64-1.87-.46-1.84,3.07-1.17,4.13,1.03,1.54,4.83-1.65,4.09,3.23-.44,2.87-4.08,2.8-4.81,4.02-.51.85,2.07,10.04-1.45,11.78l-1.83-2.19c.11,6.89-3.56,12.85-5.34,19.26-4.99,17.99-8.95,39.18-12.09,57.67-2.09,12.31-3.08,41.8-10.82,50.86-.92,1.07-7.2,5.85-8.1,5.85h-35.61c-1-1.01,1.6-13.96,2.76-15.98,1.01-1.74,2.73-1.09,2.37-3.11-8.22-.57-9.87,12.89-9.54,19.09l-17.63.73c-1.96-8.04,5.78-24.05,12.11-28.65,5.69-4.14,16.45-1.1,20.88-4.82,4.8-4.04,5.6-10.99,5.22-16.85-1.29-20,1.2-40.6,2.94-60.9,1.43-16.66-3.92-32.07-6.42-47.98-3.72-23.65-2.92-39.39-16.78-60.32-15.05-22.72-35.55-45.35-44.59-71.43-4.76-13.74-7.74-27.88-12.99-41.35-1.62-4.16-1.57-9.16-1.49-13.56l-4.79,2.92c-1.98.45-2.52-7.36-2.47-9.09.17-6.56,4.12-12.92,7.27-18.42-2.83-1.38-11.81-5.56-11.02-9.54.33-1.66,6.45-.75,8.77-2.27,2.49-1.63,4.7-8.02,2.6-10.62-3.13-.07-5.07,5.68-8.43,5.15-2.2-4.96,7.84-18.53,7.69-20.57-.03-.39-.32-1.57-.71-1.45-3.84,1.96-9.7,4.04-13.96,4.39-13.66,1.12-1.8-5.23,1.45-8.09,3.51-3.09,9.18-10.58,9.8-15.23.78-5.87-2.72-21.21-4.8-27.17-1.69-4.82-6.45-10.91-7.22-13.34-1.1-3.49-.75-5.69-2.74-9.74-1.25-2.55-3.92-5.17-4.74-7.01-1.84-4.16-4.02-24.32-5.68-25.9-8.04-3.11-16.84-2.15-24.98-2.93-17.96-1.72-31.68-6.19-46.56-16.6-13.12-9.17-27.04-21.76-25.78-38.98,9.15.61,17.7-4.45,21.51-12.28.8-1.65-.15-3.62-1.92-4.1h0c-1.4-.37-2.89.31-3.45,1.64-2.67,6.38-9.05,10.45-16.14,10.1.05-3.32,1.4-14.34,4.4-15.79.66-.32,9.61-1.04,11.36-1.13,7.53-.38,15.94-.09,23.56,0,6.69.08,15.03,2.24,21.65-.32,4.79-1.85,2.74-4.94,4.38-8.84,6.25-14.9,39.02-25.02,53.99-26.11,32.15-2.34,68.33,13.24,89.6,37.5,1.03,1.17,7.39,8.77,7.56,9.35.87,2.91-4.4,14.7-5.95,17.99-4.03,8.55-9.67,16.36-14.6,24.31-4.05,6.53-8.54,14.9-12.92,20.85-1.86,2.53-2.86,4.9-6.5,5.1-10.14.57-23.48-13.14-28-21.59-2.47-14.32-1.11-28.74-1.61-43.18-.18-5.09-.31-14.68-1.39-19.17-1.49-6.16-9.56-16.96-16.99-14.94l6.82,17.04c9.36,25.94-2.59,54.92,18.12,76.61,15.28,16.01,36.92,11.49,44.44-9.23,2.01-5.53,1.49-15.81,9.4-15.3,2.9.77,15.28,26.69,18.03,31.23,6.26,10.34,23.04,29.29,32.79,36.23,3.2,2.28,8.77,4.45,12.36,6.73,19.41,12.28,38.31,26.6,57.83,38.36,43.36,26.12,99.26,32.72,148.54,40.18,18.26,2.76,40.35,4.91,57.93,8.89,2.47.56,4.67,2.37,6.82,2.72,11.84,1.91,28.39-14.79,40.56-15.96,2.37-.23,4.1.62,6.39.65,1.91.03,4.26-1.08,5.7-.7.36.09,5.63,3.93,5.99,4.35,3.41,3.95,5.29,13.36,3.36,18.3l6.6-.73c.22,4.09-4.44,6.96-8.08,7.35,1.5,4.39,3.49,8.63,1.11,13.21-.92,1.29-1.06.25-1.84-.37-1.95-1.53-3.26-4-5.86-4.77.49,2.21-5.81,10.74-7,11.01-1.66.37-2.62-4.02-3.4-5.04-1.5-.87-9.88,5.7-12.35,6.9-2.88,1.4-6.43,2.6-9.57,3.29,5.05,15.3,7.83,31.43,12.12,46.99,10.53,38.23,17.98,76.65,36.05,111.94"/>
      </g>
    </g>
  </g>
</svg>