<?xml version="1.0" encoding="UTF-8"?>
<svg id="Ribbon_Icon" data-name="Ribbon Icon" xmlns="http://www.w3.org/2000/svg" viewBox="0 0 360 360">
  <defs>
    <style>
      .cls-1 {
        fill: #ac8b2f;
      }
    </style>
  </defs>
  <path class="cls-1" d="M159.57,229.8c-2.06-1.39-2.47-5.66-9.67-8.5-11.12-4.38-28.1-2.26-36.47-7.44-2.76-1.71-14.44-27.15-19.58-34.31-4.05-5.65-11.85-8.05-15.21-13.24-9.86-15.27-.1-25.61-.09-40.27,0-15.25-9.58-23.83.08-40.3,4.26-7.26,12.26-8.57,15.91-13.66,7.5-10.45,11.92-29.16,20.29-35.53,11.31-8.61,24.1-4.47,36.82-7.94,13.08-3.56,14.43-14.77,38.25-10.23,8.2,1.56,12.5,8.66,18.26,10.23,12.72,3.46,25.51-.67,36.82,7.94,8.38,6.38,12.78,25.07,20.29,35.53,3.29,4.59,10.58,6.05,14.2,11.22,11.42,16.32,1.7,25.51,1.78,42.72.04,9.59,5.26,18.63,4.4,28.11-1.43,15.72-15.35,18.53-23.79,29.45-6.16,7.97-11.54,27.85-15.43,30.32-7.36,4.66-23.3,3.25-33.25,6.46-28.92,9.34-16.64,15.27-53.63,9.44,1.92,1.29,3.28,6.67,9.04,9.18,24.78,10.78,34.36-19.38,60.02-13.14l28.57,117.88-34.01-12.53c-4.85.76-10.47,28.1-22.91,24.73l-20.41-89.5c-6.17.62-6.27,6.05-7.88,10.39-9.19,24.79-14.04,57.19-20.6,83.2l-22.75-27.92-34.15,11.63,30.66-113.75c9.86-12.09,20.48-2.36,34.43-.16Z"/>
</svg>